<?xml version="1.0" standalone="no"?>
<!DOCTYPE svg PUBLIC "-//W3C//DTD SVG 20010904//EN"
 "http://www.w3.org/TR/2001/REC-SVG-20010904/DTD/svg10.dtd">
<svg version="1.0" xmlns="http://www.w3.org/2000/svg"
 width="16.000000pt" height="16.000000pt" viewBox="0 0 16.000000 16.000000"
 preserveAspectRatio="xMidYMid meet">
<metadata>
Created by potrace 1.11, written by Peter Selinger 2001-2013
</metadata>
<g transform="translate(0.000000,16.000000) scale(0.001782,-0.001782)"
fill="#000000" stroke="none">
<path d="M4135 8514 c-16 -2 -84 -9 -150 -15 -1010 -92 -2016 -588 -2691
-1327 -577 -631 -931 -1395 -1015 -2194 l-12 -117 -115 -48 -114 -48 6 -110
c28 -493 208 -1508 299 -1685 32 -61 66 -79 180 -89 60 -6 105 -16 121 -26 15
-10 43 -47 63 -84 234 -425 449 -710 771 -1023 606 -588 1388 -985 2227 -1132
292 -51 409 -60 760 -61 358 0 470 8 750 55 725 123 1398 423 1967 878 153
122 410 370 537 517 489 566 791 1218 911 1965 28 178 37 196 125 242 38 20
80 49 94 64 23 28 24 31 18 159 -19 401 -191 1406 -267 1555 -11 21 -35 54
-54 72 -19 19 -40 46 -45 61 -10 25 -14 27 -75 27 -121 0 -118 -3 -190 136
-193 365 -414 662 -726 974 -253 254 -486 438 -774 612 -566 343 -1137 540
-1801 624 -122 15 -720 29 -800 18z m670 -374 c670 -61 1300 -277 1825 -624
132 -88 310 -222 310 -234 0 -4 -9 -21 -19 -38 -15 -25 -36 -37 -108 -63 -75
-27 -96 -39 -124 -74 -33 -39 -35 -45 -26 -85 7 -36 13 -44 37 -49 16 -3 31
-11 34 -19 3 -8 12 -14 20 -14 8 0 25 -22 38 -49 25 -55 44 -64 135 -62 48 1
53 -1 58 -24 17 -81 18 -75 -17 -74 -18 0 -58 4 -88 8 -32 5 -84 4 -124 -2
-72 -12 -70 -10 -155 -117 -22 -29 -34 -22 -34 19 0 25 -6 32 -38 44 -46 18
-94 82 -115 153 -8 29 -23 63 -33 76 -10 13 -21 35 -25 50 -6 25 -10 27 -39
22 -81 -15 -103 -24 -120 -53 -24 -41 -21 -66 11 -97 l27 -26 -31 5 c-16 3
-34 7 -40 8 -5 2 -30 0 -57 -5 -43 -7 -50 -12 -87 -66 -30 -44 -40 -69 -40
-99 0 -36 3 -40 30 -46 16 -4 32 -11 35 -16 13 -20 73 -8 129 26 32 19 60 35
63 35 2 0 3 -19 2 -42 -3 -30 1 -43 11 -45 8 -3 33 -13 56 -24 l41 -19 -13
-67 c-20 -102 -19 -109 19 -120 30 -9 32 -12 30 -48 -2 -21 -7 -43 -11 -47 -5
-5 -41 -2 -81 7 -90 19 -137 18 -225 -3 -68 -17 -69 -17 -87 -65 -18 -45 -18
-54 -5 -143 8 -53 16 -98 18 -99 21 -21 112 -75 142 -85 47 -15 238 -9 277 10
15 6 37 31 49 54 29 53 167 224 191 236 10 6 42 10 71 10 38 0 65 7 97 25 23
14 49 25 55 25 7 0 35 -17 64 -37 28 -21 92 -64 142 -95 83 -53 90 -59 80 -79
-10 -18 -20 -20 -73 -18 -44 1 -61 -2 -59 -10 5 -22 34 -61 46 -61 6 0 28 -9
49 -20 41 -22 75 -25 110 -9 37 17 50 49 54 126 3 82 3 83 -115 142 -77 39
-102 63 -102 99 0 40 17 52 76 52 45 0 60 -5 101 -36 104 -78 113 -91 113
-158 l0 -61 73 -78 c66 -73 74 -78 97 -69 34 13 44 27 65 90 16 51 53 90 73
78 6 -3 13 -26 16 -50 6 -38 16 -53 71 -104 42 -39 76 -63 102 -69 l38 -9 -30
-16 c-76 -39 -300 -109 -378 -118 -45 -6 -85 -10 -89 -10 -4 0 -8 -10 -10 -22
-2 -16 -17 -26 -57 -39 -33 -12 -59 -15 -70 -10 -9 5 -77 23 -151 40 -74 18
-138 38 -142 44 -4 7 -8 33 -8 60 0 28 -8 62 -20 84 -11 21 -20 43 -20 50 0
16 6 16 -234 -3 -194 -15 -200 -16 -269 -51 l-71 -35 -120 6 -121 7 -100 -53
c-96 -51 -100 -54 -107 -93 -4 -22 -7 -70 -7 -107 l-1 -67 -202 -139 -203
-139 2 -46 3 -45 -53 -12 c-480 -103 -1089 -207 -1647 -280 -435 -57 -1103
-123 -1139 -113 -16 5 -62 87 -61 110 0 7 -17 15 -37 18 -74 13 -113 26 -113
38 0 7 9 32 20 56 25 54 25 58 0 106 -11 22 -20 45 -20 52 0 31 -31 19 -163
-64 l-142 -90 -60 8 c-33 4 -68 8 -78 8 -9 1 -27 16 -38 34 -31 49 -22 138 24
231 64 129 85 150 204 208 l108 53 191 3 c212 4 223 1 225 -61 0 -27 8 -37 52
-65 63 -41 107 -51 126 -28 9 10 15 46 16 91 2 63 7 80 29 109 33 44 93 92
181 146 96 59 132 95 150 150 12 37 39 70 125 156 90 89 128 119 210 165 73
40 120 75 172 128 90 92 110 105 172 111 39 4 51 9 51 22 0 9 8 25 18 36 18
20 18 20 -22 27 -52 9 -58 19 -27 50 30 30 64 32 97 7 71 -54 132 -61 218 -26
45 19 47 18 15 -9 -22 -20 -25 -28 -19 -55 5 -23 16 -37 38 -48 18 -8 48 -23
68 -34 56 -29 154 -47 173 -31 18 15 21 56 6 66 -5 3 -10 15 -10 26 0 13 -16
27 -55 46 -30 15 -55 31 -55 35 0 5 20 21 44 35 63 38 84 93 52 138 -7 11 -15
28 -17 37 -2 9 -26 31 -54 50 -48 32 -50 35 -61 101 -6 38 -16 72 -22 76 -5 3
-13 23 -17 44 -9 44 -11 44 -117 -9 -81 -41 -108 -43 -108 -11 0 12 -9 47 -19
77 l-19 55 -69 17 c-37 9 -98 23 -136 29 l-67 12 -55 -38 -55 -37 0 -125 c0
-90 -3 -125 -12 -128 -7 -2 -53 -16 -103 -32 l-90 -28 -40 -77 c-31 -60 -45
-78 -61 -78 -19 0 -22 7 -26 55 -3 31 -12 63 -21 73 -9 10 -17 28 -17 39 0 22
-10 26 -125 39 -77 9 -122 37 -137 88 -10 31 -9 43 3 65 23 42 321 203 401
217 33 5 39 3 46 -16 8 -22 67 -50 106 -50 26 0 106 67 106 89 0 26 34 57 77
72 20 6 59 29 85 50 51 40 64 44 178 58 85 11 116 7 150 -19 l24 -18 -131 -66
c-72 -36 -134 -69 -137 -74 -3 -5 17 -14 45 -20 27 -7 62 -21 77 -31 28 -21
182 -61 231 -61 27 0 81 41 81 61 0 14 57 39 88 39 73 0 130 49 105 89 -7 10
-9 28 -6 39 4 16 -2 22 -31 32 -22 7 -36 18 -36 28 0 9 -10 40 -22 68 l-23 52
-175 72 -175 73 -121 -11 c-106 -10 -131 -16 -199 -49 l-78 -37 6 -83 c3 -46
4 -83 2 -83 -2 0 -27 5 -55 11 -62 13 -65 33 -19 103 24 35 29 50 20 59 -8 8
-5 17 11 34 27 29 22 31 -122 36 -142 5 -175 -4 -201 -55 -10 -20 -19 -39 -19
-42 0 -3 18 -10 40 -16 38 -10 40 -13 40 -50 l0 -39 -80 -7 c-76 -6 -82 -8
-96 -35 -14 -29 -15 -29 -109 -29 -94 0 -95 0 -95 24 0 33 35 56 85 56 53 1
114 29 148 69 29 35 33 46 16 56 -7 5 -5 13 6 25 16 18 15 20 -24 40 l-41 21
-49 -46 c-45 -42 -52 -45 -103 -45 -97 0 -112 7 -168 76 l-52 64 -108 0 -109
0 -106 -76 c-58 -42 -108 -81 -111 -85 -3 -5 22 -9 54 -9 42 0 61 -4 65 -14 3
-8 24 -17 46 -21 23 -4 41 -9 41 -13 0 -3 -9 -16 -21 -28 l-21 -22 46 -7 c25
-4 46 -11 46 -16 0 -11 66 -29 106 -29 17 0 38 -7 45 -16 12 -15 3 -15 -101
-9 -63 4 -119 10 -123 12 -5 3 -12 15 -17 28 -7 19 -23 26 -87 40 -43 9 -99
27 -125 41 -26 13 -60 24 -75 24 l-28 1 28 24 c69 61 404 237 619 326 324 133
726 234 1063 268 61 6 124 13 140 15 71 8 540 5 640 -4z m-2405 -838 c0 -4 -7
-18 -16 -30 -13 -19 -24 -22 -82 -22 -60 0 -65 1 -51 16 30 30 149 59 149 36z
m0 -214 c0 -4 -17 -8 -37 -7 -33 1 -35 2 -13 8 33 10 50 9 50 -1z m4944 -187
l49 -50 -35 -48 -34 -48 -94 -3 c-51 -1 -97 1 -103 7 -6 6 12 22 46 45 47 29
58 42 68 78 24 84 37 86 103 19z m-1014 -171 c0 -13 -9 -22 -25 -26 -35 -9
-44 -2 -34 24 11 29 59 32 59 2z m-3630 -38 c0 -38 -18 -59 -57 -67 -29 -6
-33 -4 -39 21 -6 22 -2 32 20 51 15 13 38 23 52 23 20 0 24 -5 24 -28z m334
-242 c37 -14 36 -57 0 -66 -29 -7 -192 1 -201 10 -12 11 21 37 66 50 55 17
101 19 135 6z m-84 -105 c0 -13 -142 -195 -152 -195 -20 0 0 70 31 109 17 22
31 51 31 65 0 24 3 26 45 26 25 0 45 -2 45 -5z m210 -44 c0 -20 -35 -51 -57
-51 -16 0 -17 42 -1 58 20 20 58 15 58 -7z m174 -87 c9 -3 16 -15 16 -25 0
-16 -8 -19 -45 -19 -30 0 -45 4 -45 13 0 30 37 45 74 31z m-221 -96 c-26 -27
-73 -38 -73 -18 0 5 19 23 42 40 31 23 44 27 49 18 5 -8 -2 -23 -18 -40z
m4782 -38 c20 -38 19 -42 -7 -38 -23 3 -34 28 -24 54 8 20 14 18 31 -16z m535
-29 c0 -8 -61 -35 -64 -29 -1 2 -8 11 -15 21 -12 16 -10 17 33 17 25 0 46 -4
46 -9z m69 -241 c60 -267 113 -556 150 -820 27 -187 61 -497 61 -550 0 -40 -1
-42 -57 -67 -294 -131 -939 -365 -1387 -503 -1498 -459 -3102 -737 -4831 -836
-393 -23 -1359 -25 -1753 -5 l-272 15 -25 78 c-72 227 -116 474 -180 1008 -25
206 -50 402 -55 434 -5 33 -8 62 -5 64 2 2 120 -3 262 -11 411 -26 491 -28
988 -28 1322 0 2806 170 4236 487 945 209 1877 494 2654 813 94 38 173 66 177
63 3 -4 20 -68 37 -142z m-7578 -40 c6 0 40 -19 75 -42 l64 -42 0 -127 0 -126
76 -127 c71 -119 79 -128 128 -151 64 -30 80 -31 107 -4 30 30 20 67 -51 174
-32 50 -64 110 -69 135 -15 65 -13 126 3 140 12 9 16 5 25 -27 5 -21 12 -57
16 -81 5 -32 32 -77 111 -187 l104 -145 -24 -48 -24 -48 65 -98 c36 -53 73
-100 82 -103 9 -3 23 -12 32 -20 27 -23 249 -75 292 -69 20 3 55 9 77 12 39 6
40 5 40 -23 0 -24 6 -31 32 -38 52 -16 44 -32 -21 -38 -32 -4 -263 -9 -512
-13 -474 -6 -872 5 -891 24 -24 24 31 440 87 663 32 127 100 338 128 397 16
35 22 41 29 28 5 -9 14 -16 19 -16z m-661 -1030 c0 -17 -7 -20 -47 -20 l-48 1
40 18 c52 25 55 25 55 1z m6774 -1109 c20 -8 96 -125 96 -147 0 -7 -30 -67
-66 -133 -65 -118 -66 -123 -62 -181 4 -56 7 -62 61 -119 l57 -60 0 -139 0
-140 70 -91 70 -92 0 -118 c0 -124 3 -131 47 -131 8 0 21 -6 29 -14 12 -13 10
-19 -13 -48 -49 -61 -177 -189 -283 -282 -831 -733 -1907 -1074 -3030 -960
-672 68 -1301 303 -1855 692 -394 277 -767 669 -992 1044 -65 107 -77 150 -45
166 9 5 285 12 612 15 573 6 869 17 1300 52 102 8 202 15 222 15 l38 0 0 -251
0 -250 35 -15 c43 -17 43 -26 14 -182 l-21 -113 67 -87 c64 -84 66 -89 61
-132 -3 -25 -8 -88 -12 -140 l-6 -96 87 -147 c85 -143 92 -152 194 -238 126
-107 156 -124 238 -133 164 -18 200 52 81 156 l-60 52 7 55 c11 86 9 133 -6
174 -12 33 -18 37 -49 37 -19 0 -42 4 -50 10 -15 9 -15 9 36 102 11 21 12 33
4 47 -5 11 -10 29 -10 41 0 12 -9 24 -21 28 -19 8 -20 10 -6 24 9 8 44 22 80
31 76 20 223 86 254 116 12 11 42 51 66 88 24 38 85 118 136 178 110 132 118
155 97 248 -27 116 -19 163 37 215 22 21 36 24 119 26 102 3 144 18 206 75 39
37 48 58 61 154 12 89 26 121 58 142 13 9 119 34 236 56 582 109 1148 238
1637 373 134 37 145 39 174 27z"/>
<path d="M4099 6361 c-10 -29 -14 -31 -64 -31 -47 0 -53 -2 -57 -24 -7 -34 28
-62 88 -70 54 -8 71 0 94 45 9 16 7 19 -10 19 -11 0 -20 5 -20 10 0 6 11 10
25 10 17 0 29 8 37 25 14 31 12 32 -40 41 -41 6 -43 5 -53 -25z"/>
<path d="M3842 6307 c-12 -13 -22 -36 -22 -51 0 -26 2 -27 43 -24 41 3 42 4
42 37 0 23 -7 38 -21 47 -18 13 -23 12 -42 -9z"/>
<path d="M7355 5223 c-79 -10 -202 -64 -258 -112 -144 -127 -114 -355 61 -457
61 -36 123 -43 283 -32 164 12 205 7 221 -27 28 -62 -78 -150 -197 -162 -67
-7 -106 8 -144 55 l-29 34 -69 -22 c-109 -36 -107 -34 -83 -80 32 -62 77 -107
148 -147 55 -31 77 -37 141 -41 86 -5 172 14 261 56 213 101 255 328 89 494
-66 66 -97 72 -299 63 -173 -9 -226 -8 -241 1 -19 11 -9 72 16 102 51 61 190
87 238 45 50 -44 107 -54 163 -27 44 21 51 51 25 102 -53 104 -194 171 -326
155z"/>
<path d="M6407 4895 c-49 -13 -90 -25 -92 -27 -4 -4 -95 -910 -95 -944 0 -12
7 -15 28 -12 16 2 34 -2 41 -9 17 -18 59 -16 108 6 44 20 53 39 68 135 10 61
38 80 161 110 61 14 120 26 131 26 14 0 31 -17 54 -52 18 -29 34 -54 35 -56 1
-2 8 -5 16 -6 7 -2 25 -8 40 -14 48 -20 141 9 153 48 8 26 12 20 -228 380
-244 366 -296 439 -317 439 -8 -1 -55 -11 -103 -24z m180 -408 c75 -120 76
-112 -6 -131 -38 -9 -75 -16 -82 -16 -9 0 -10 25 -7 93 5 85 18 137 36 137 4
0 30 -37 59 -83z"/>
<path d="M5585 4683 c-64 -10 -450 -84 -452 -87 -3 -3 40 -241 120 -661 l43
-229 35 -9 c72 -18 89 -19 122 -8 55 19 61 46 37 175 -25 135 -25 151 -1 175
22 22 183 54 228 45 36 -7 41 -16 78 -158 27 -107 37 -126 66 -126 10 0 21 -4
24 -10 9 -15 80 -12 120 4 36 16 56 56 38 79 -6 6 -20 55 -33 107 -25 106 -28
113 -78 188 l-35 54 23 46 c12 27 25 74 28 110 4 55 1 69 -26 125 -35 70 -97
137 -150 163 -36 17 -133 26 -187 17z m105 -216 c32 -16 47 -76 30 -117 -16
-39 -72 -64 -194 -85 -113 -20 -111 -21 -122 62 -12 99 0 111 131 137 90 18
124 19 155 3z"/>
<path d="M4387 4470 c-109 -15 -200 -30 -203 -33 -6 -6 3 -77 56 -472 10 -77
26 -196 35 -265 21 -155 22 -160 46 -160 11 0 31 -7 45 -16 23 -16 36 -15 197
5 95 13 201 29 236 37 162 36 241 126 241 271 0 78 -20 128 -81 196 l-39 45
20 52 c41 104 15 215 -70 300 -77 77 -163 85 -483 40z m347 -196 c8 -20 8 -58
0 -79 -10 -26 -56 -44 -156 -60 -138 -22 -136 -23 -143 29 -8 53 0 82 26 97
32 17 98 27 185 28 66 1 83 -2 88 -15z m62 -349 c8 -10 14 -36 14 -56 0 -53
-37 -94 -98 -108 -93 -21 -204 -33 -214 -23 -12 12 -22 113 -14 145 7 29 39
44 121 56 92 15 175 8 191 -14z"/>
<path d="M3785 4393 c-22 -3 -43 -7 -47 -11 -4 -4 15 -207 42 -452 28 -244 50
-446 50 -447 0 -2 12 -3 26 -3 14 0 33 -7 42 -16 12 -12 28 -15 66 -11 57 5
86 31 86 77 0 15 -18 191 -40 391 -30 275 -44 374 -59 404 -10 22 -21 48 -25
58 -6 17 -39 20 -141 10z"/>
<path d="M3358 4333 c-22 -6 -23 -25 -3 -332 8 -129 14 -236 12 -238 -8 -7
-54 55 -195 267 -83 124 -161 238 -174 253 l-23 28 -99 -7 -99 -7 6 -106 c3
-58 16 -262 29 -453 19 -297 25 -348 38 -348 8 0 28 -7 44 -15 38 -20 110 -19
130 1 26 25 27 49 13 259 -15 213 -13 265 9 265 8 0 85 -107 173 -237 143
-215 162 -240 200 -255 76 -33 171 -16 184 33 3 12 -5 193 -19 403 -21 329
-27 386 -44 421 -11 22 -20 48 -20 58 0 15 -10 17 -72 16 -40 -1 -81 -3 -90
-6z"/>
<path d="M2352 3928 c3 -320 2 -334 -17 -368 -27 -46 -76 -70 -143 -70 -76 0
-107 19 -121 74 -6 24 -14 165 -17 313 -5 235 -8 273 -25 306 -10 21 -19 44
-19 52 0 12 -19 15 -100 15 l-99 0 5 -292 c6 -331 14 -409 49 -477 29 -59 98
-121 174 -158 48 -24 71 -28 163 -32 187 -6 295 45 355 167 l28 57 0 325 c0
294 -2 329 -17 353 -10 14 -18 35 -18 47 0 19 -6 20 -101 20 l-100 0 3 -332z"/>
</g>
</svg>
