<?xml version="1.0" encoding="UTF-8" standalone="no"?>
<svg width="1324px" height="409px" viewBox="0 0 1324 409" version="1.1" xmlns="http://www.w3.org/2000/svg" xmlns:xlink="http://www.w3.org/1999/xlink">
    <!-- Generator: Sketch 39.1 (31720) - http://www.bohemiancoding.com/sketch -->
    <title>Unibras Brand</title>
    <desc>Created with Sketch.</desc>
    <defs>
        <filter x="-50%" y="-50%" width="200%" height="200%" filterUnits="objectBoundingBox" id="filter-1">
            <feOffset dx="2" dy="2" in="SourceAlpha" result="shadowOffsetOuter1"></feOffset>
            <feGaussianBlur stdDeviation="2" in="shadowOffsetOuter1" result="shadowBlurOuter1"></feGaussianBlur>
            <feColorMatrix values="0 0 0 0 0   0 0 0 0 0   0 0 0 0 0  0 0 0 0.5 0" type="matrix" in="shadowBlurOuter1" result="shadowMatrixOuter1"></feColorMatrix>
            <feMerge>
                <feMergeNode in="shadowMatrixOuter1"></feMergeNode>
                <feMergeNode in="SourceGraphic"></feMergeNode>
            </feMerge>
        </filter>
        <filter x="-50%" y="-50%" width="200%" height="200%" filterUnits="objectBoundingBox" id="filter-2">
            <feOffset dx="2" dy="2" in="SourceAlpha" result="shadowOffsetOuter1"></feOffset>
            <feGaussianBlur stdDeviation="2" in="shadowOffsetOuter1" result="shadowBlurOuter1"></feGaussianBlur>
            <feColorMatrix values="0 0 0 0 0   0 0 0 0 0   0 0 0 0 0  0 0 0 0.5 0" type="matrix" in="shadowBlurOuter1" result="shadowMatrixOuter1"></feColorMatrix>
            <feMerge>
                <feMergeNode in="shadowMatrixOuter1"></feMergeNode>
                <feMergeNode in="SourceGraphic"></feMergeNode>
            </feMerge>
        </filter>
        <path d="M799.199744,141.216086 C797.301308,140.450697 793.901393,139.225348 789,138 C781,136 768,136 768,136 C768,136 743.479868,134.414722 736,131 C724,125 722,115 722,115 L722,107 C722,83.2517558 749.982203,64 784,64 C819.017797,64 847,83.2517558 847,107 C847,109.733753 846.629202,112.407922 845.919558,115 L804,115 L803.944623,107 C803.198325,100.287552 795.001643,95 785,95 C774.50659,95 766,100.820298 766,108 C766,110.57665 767.095604,112.978217 769,115 C769,115 773,117 781,119 C789,121 802,121 802,121 C802,121 826.520132,122.585278 834,126 C846,132 848,142 848,142 L848,150 C848,174.300529 820.017797,194 786,194 C750.982203,194 723,174.300529 723,150 C723,147.268028 723.353674,144.59421 724.031257,142 L766,142 L766,150 C766,156.955844 774.50659,163 785,163 C795.49341,163 804,156.955844 804,150 C804,147.078365 801.270834,143.476505 799.199744,141.216086 L799.199744,141.216086 Z" id="path-3"></path>
        <filter x="-50%" y="-50%" width="200%" height="200%" filterUnits="objectBoundingBox" id="filter-4">
            <feGaussianBlur stdDeviation="1" in="SourceAlpha" result="shadowBlurInner1"></feGaussianBlur>
            <feOffset dx="2" dy="2" in="shadowBlurInner1" result="shadowOffsetInner1"></feOffset>
            <feComposite in="shadowOffsetInner1" in2="SourceAlpha" operator="arithmetic" k2="-1" k3="1" result="shadowInnerInner1"></feComposite>
            <feColorMatrix values="0 0 0 0 1   0 0 0 0 1   0 0 0 0 1  0 0 0 0.5 0" type="matrix" in="shadowInnerInner1"></feColorMatrix>
        </filter>
        <path d="M710.992348,127.507692 C710.44967,92.3428936 681.111729,64 645,64 C608.549207,64 579,92.8776336 579,128.5 C579,164.122366 608.549207,193 645,193 C648.747834,193 652.422707,192.694713 656,192.108197 L656,142.709044 C652.503945,145.604801 647.963089,147.353846 643,147.353846 C631.954305,147.353846 623,138.690556 623,128.003846 C623,117.317136 631.954305,108.653846 643,108.653846 C654.045695,108.653846 663,117.317136 663,128.003846 C663,128.169727 662.997843,128.335119 662.993553,128.5 L663,128.5 L663,193 L711,193 L711,127.507692 L710.992348,127.507692 L710.992348,127.507692 Z" id="path-5"></path>
        <filter x="-50%" y="-50%" width="200%" height="200%" filterUnits="objectBoundingBox" id="filter-6">
            <feGaussianBlur stdDeviation="1" in="SourceAlpha" result="shadowBlurInner1"></feGaussianBlur>
            <feOffset dx="2" dy="2" in="shadowBlurInner1" result="shadowOffsetInner1"></feOffset>
            <feComposite in="shadowOffsetInner1" in2="SourceAlpha" operator="arithmetic" k2="-1" k3="1" result="shadowInnerInner1"></feComposite>
            <feColorMatrix values="0 0 0 0 1   0 0 0 0 1   0 0 0 0 1  0 0 0 0.5 0" type="matrix" in="shadowInnerInner1"></feColorMatrix>
        </filter>
        <path d="M568,64 L538.401269,64 C518.226314,74.3998336 504.95098,90.6371991 504.049047,108.999993 L504,109 L504,193 L550,193 L550,111 L550.009334,111 C550.300116,103.223388 557.348099,97 566,97 L566,101 L570,101 L570,64 L568,64 L568,64 Z" id="path-7"></path>
        <filter x="-50%" y="-50%" width="200%" height="200%" filterUnits="objectBoundingBox" id="filter-8">
            <feGaussianBlur stdDeviation="1" in="SourceAlpha" result="shadowBlurInner1"></feGaussianBlur>
            <feOffset dx="2" dy="2" in="shadowBlurInner1" result="shadowOffsetInner1"></feOffset>
            <feComposite in="shadowOffsetInner1" in2="SourceAlpha" operator="arithmetic" k2="-1" k3="1" result="shadowInnerInner1"></feComposite>
            <feColorMatrix values="0 0 0 0 1   0 0 0 0 1   0 0 0 0 1  0 0 0 0.5 0" type="matrix" in="shadowInnerInner1"></feColorMatrix>
        </filter>
        <path d="M400,62.2139632 L400,0 L352,0 L352,128 C352.000648,128.166517 352,128.333185 352,128.5 C352,164.122366 381.549207,193 418,193 C454.450793,193 484,164.122366 484,128.5 C484,92.8776336 454.450793,64 418,64 C414.600514,64 411.261057,64.2511737 408,64.7355673 L408,115.031098 C410.860196,113.116543 414.299707,112 418,112 C427.941125,112 436,120.058875 436,130 C436,139.941125 427.941125,148 418,148 C408.058875,148 400,139.941125 400,130 C400,129.664443 400.009182,129.33103 400.027308,129 L400,129 L400,62.2139632 L400,62.2139632 Z" id="path-9"></path>
        <filter x="-50%" y="-50%" width="200%" height="200%" filterUnits="objectBoundingBox" id="filter-10">
            <feGaussianBlur stdDeviation="1" in="SourceAlpha" result="shadowBlurInner1"></feGaussianBlur>
            <feOffset dx="2" dy="2" in="shadowBlurInner1" result="shadowOffsetInner1"></feOffset>
            <feComposite in="shadowOffsetInner1" in2="SourceAlpha" operator="arithmetic" k2="-1" k3="1" result="shadowInnerInner1"></feComposite>
            <feColorMatrix values="0 0 0 0 1   0 0 0 0 1   0 0 0 0 1  0 0 0 0.5 0" type="matrix" in="shadowInnerInner1"></feColorMatrix>
        </filter>
        <path d="M280,64 L328,64 L328,193 L280,193 L280,64 Z M304,49 C317.254834,49 328,38.0309764 328,24.5 C328,10.9690236 317.254834,0 304,0 C290.745166,0 280,10.9690236 280,24.5 C280,38.0309764 290.745166,49 304,49 Z" id="path-11"></path>
        <filter x="-50%" y="-50%" width="200%" height="200%" filterUnits="objectBoundingBox" id="filter-12">
            <feGaussianBlur stdDeviation="1" in="SourceAlpha" result="shadowBlurInner1"></feGaussianBlur>
            <feOffset dx="2" dy="2" in="shadowBlurInner1" result="shadowOffsetInner1"></feOffset>
            <feComposite in="shadowOffsetInner1" in2="SourceAlpha" operator="arithmetic" k2="-1" k3="1" result="shadowInnerInner1"></feComposite>
            <feColorMatrix values="0 0 0 0 1   0 0 0 0 1   0 0 0 0 1  0 0 0 0.5 0" type="matrix" in="shadowInnerInner1"></feColorMatrix>
        </filter>
        <path d="M187,193.023253 L140,193.023253 L140,107.355748 C140,83.4110297 165.295912,64 196.5,64 C227.704088,64 253,83.4110297 253,107.355748 L253,193.023253 L207,193.023253 L207,112.77639 C207,109.789279 202.522847,107.367747 197,107.367747 C191.477153,107.367747 187,109.789279 187,112.77639 L187,193.023253 L187,193.023253 Z" id="path-13"></path>
        <filter x="-50%" y="-50%" width="200%" height="200%" filterUnits="objectBoundingBox" id="filter-14">
            <feGaussianBlur stdDeviation="1" in="SourceAlpha" result="shadowBlurInner1"></feGaussianBlur>
            <feOffset dx="2" dy="2" in="shadowBlurInner1" result="shadowOffsetInner1"></feOffset>
            <feComposite in="shadowOffsetInner1" in2="SourceAlpha" operator="arithmetic" k2="-1" k3="1" result="shadowInnerInner1"></feComposite>
            <feColorMatrix values="0 0 0 0 1   0 0 0 0 1   0 0 0 0 1  0 0 0 0.5 0" type="matrix" in="shadowInnerInner1"></feColorMatrix>
        </filter>
        <path d="M46.0113795,141.830728 L46.0113795,64 L0,64 L0,150.023254 C1.2243097e-06,173.771498 25.2959124,193.023253 56.5,193.023253 C87.7040884,193.023253 113,173.771497 113,150.023253 C113,150.018989 112.999999,150.014726 112.999998,150.010463 L113,64.0232487 L66.0249986,64.0232487 L66.0249986,142.023254 L65.9999991,142.023254 C65.9999985,144.232392 61.5228466,146.023253 56,146.023253 C50.4771525,146.023253 46,144.232392 46,142.023253 C46,141.958709 46.0038217,141.894523 46.0113795,141.830728 L46.0113795,141.830728 Z" id="path-15"></path>
        <filter x="-50%" y="-50%" width="200%" height="200%" filterUnits="objectBoundingBox" id="filter-16">
            <feGaussianBlur stdDeviation="1" in="SourceAlpha" result="shadowBlurInner1"></feGaussianBlur>
            <feOffset dx="2" dy="2" in="shadowBlurInner1" result="shadowOffsetInner1"></feOffset>
            <feComposite in="shadowOffsetInner1" in2="SourceAlpha" operator="arithmetic" k2="-1" k3="1" result="shadowInnerInner1"></feComposite>
            <feColorMatrix values="0 0 0 0 1   0 0 0 0 1   0 0 0 0 1  0 0 0 0.5 0" type="matrix" in="shadowInnerInner1"></feColorMatrix>
        </filter>
        <filter x="-50%" y="-50%" width="200%" height="200%" filterUnits="objectBoundingBox" id="filter-17">
            <feOffset dx="2" dy="2" in="SourceAlpha" result="shadowOffsetOuter1"></feOffset>
            <feGaussianBlur stdDeviation="2" in="shadowOffsetOuter1" result="shadowBlurOuter1"></feGaussianBlur>
            <feColorMatrix values="0 0 0 0 0   0 0 0 0 0   0 0 0 0 0  0 0 0 0.5 0" type="matrix" in="shadowBlurOuter1" result="shadowMatrixOuter1"></feColorMatrix>
            <feMerge>
                <feMergeNode in="shadowMatrixOuter1"></feMergeNode>
                <feMergeNode in="SourceGraphic"></feMergeNode>
            </feMerge>
        </filter>
        <path d="M434,207.391556 C431.767524,178.714104 427.202279,151.104365 420.596247,125 C359.79516,151.260439 282.282922,172.672954 196.638451,184.709499 C123.163248,195.035766 60.3488965,197.027785 0.571736378,192.042775 C5.22515089,221.581306 5.58764037,249.712451 14.9195984,275.796915 C72.6015833,279.850581 138.884428,277.512788 208.638451,267.709499 C294.943433,255.580125 372.990263,233.929605 434,207.391556 L434,207.391556 Z" id="path-18"></path>
        <filter x="-50%" y="-50%" width="200%" height="200%" filterUnits="objectBoundingBox" id="filter-19">
            <feMorphology radius="2.02999997" operator="dilate" in="SourceAlpha" result="shadowSpreadOuter1"></feMorphology>
            <feOffset dx="2" dy="2" in="shadowSpreadOuter1" result="shadowOffsetOuter1"></feOffset>
            <feGaussianBlur stdDeviation="2" in="shadowOffsetOuter1" result="shadowBlurOuter1"></feGaussianBlur>
            <feComposite in="shadowBlurOuter1" in2="SourceAlpha" operator="out" result="shadowBlurOuter1"></feComposite>
            <feColorMatrix values="0 0 0 0 0   0 0 0 0 0   0 0 0 0 0  0 0 0 0.5 0" type="matrix" in="shadowBlurOuter1"></feColorMatrix>
        </filter>
        <path d="M25.7607381,49.5556198 L35.3878564,49.3974256 L35.8457602,77.2637809 C35.8969756,80.3805632 36.3034629,82.6505355 37.0652342,84.0737658 C38.2553034,86.5975352 40.777784,87.8277288 44.6327516,87.7643834 C48.467214,87.701375 50.9376618,86.389137 52.0441691,83.8276299 C52.7587683,82.3801397 53.0904553,80.0980376 53.0392399,76.9812553 L52.5813361,49.1149 L62.2084545,48.9567059 L62.6663582,76.8230612 C62.7455399,81.6417707 62.058773,85.4064545 60.6060369,88.1172256 C57.8982033,93.0842852 52.6176301,95.6323014 44.7641588,95.7613507 C36.9106876,95.8904 31.5389968,93.5174233 28.6489252,88.6423493 C27.1079099,85.9807719 26.2978236,82.2406845 26.2186419,77.421975 L25.7607381,49.5556198 Z M73.9089672,47.3050452 L83.8237026,46.654803 L103.913638,77.0590464 L101.842123,45.4730934 L110.65181,44.895324 L113.61917,90.1408971 L104.164871,90.7609423 L83.5782629,59.8343719 L85.686014,91.9728489 L76.8763264,92.5506183 L73.9089672,47.3050452 Z M136.030156,86.8962544 L126.675353,87.9421298 L121.637378,42.8801069 L130.992181,41.8342314 L136.030156,86.8962544 Z M153.989527,46.6524265 L155.312836,56.5620194 L166.350597,55.0880569 C168.322362,54.824751 169.873588,54.2400171 171.004321,53.3338375 C172.135054,52.4276579 172.57419,51.0293617 172.321742,49.1389068 C172.042149,47.0451773 171.04448,45.771508 169.328704,45.3178609 C167.863675,45.0376291 166.043668,45.0427385 163.868628,45.3331893 L153.989527,46.6524265 Z M156.306335,64.0018369 L157.906521,75.9848215 L168.944283,74.510859 C170.916048,74.2475531 172.415461,73.7783588 173.442568,73.1032618 C175.304364,71.8615229 176.050666,69.8584153 175.681494,67.0938792 C175.369328,64.7562199 174.189346,63.2793103 172.141513,62.6631059 C170.999009,62.3191147 169.450704,62.2672518 167.496552,62.5075157 L156.306335,64.0018369 Z M178.162217,40.352006 C179.799647,42.0782028 180.796147,44.2727176 181.151745,46.9356164 C181.518202,49.6798251 181.121596,51.9776141 179.961917,53.8290523 C179.31434,54.8672668 178.290025,55.8730171 176.888943,56.8463335 C179.297242,57.3730221 181.206572,58.4628809 182.616992,60.1159425 C184.027411,61.7690041 184.904978,63.8862976 185.249719,66.4678865 C185.605317,69.1307853 185.253469,71.6088043 184.194163,73.9020179 C183.527709,75.4186222 182.617971,76.7401066 181.464922,77.8665109 C180.168254,79.1569234 178.566289,80.136364 176.658977,80.804862 C174.751666,81.4733601 172.64954,81.9609707 170.352536,82.2677084 L149.984511,84.9876172 L143.982796,40.043802 L165.814392,37.1284507 C171.333994,36.4741329 175.449895,37.5486406 178.162217,40.352006 L178.162217,40.352006 Z M202.173602,38.2166771 L204.413445,50.1906268 L214.966244,48.2166234 C217.062704,47.8244603 218.589776,47.2884469 219.547507,46.608567 C221.243694,45.4150063 221.857988,43.5684413 221.390409,41.0688164 C220.885122,38.3676089 219.648726,36.7211903 217.681184,36.1295112 C216.57523,35.7939362 215.014363,35.8146884 212.998536,36.1917682 L202.173602,38.2166771 Z M220.912258,27.8890571 C222.727451,28.2797346 224.347821,29.0510897 225.773414,30.2031454 C226.952176,31.1510099 227.951964,32.2575154 228.77281,33.5226951 C229.593656,34.7878747 230.1681,36.2973264 230.496159,38.0510955 C230.892093,40.1677134 230.747236,42.3489477 230.061584,44.5948639 C229.375932,46.8407802 227.882661,48.617054 225.581727,49.9237386 C227.792472,50.365606 229.468531,51.2673712 230.609953,52.6290612 C231.751374,53.9907513 232.614309,56.2338283 233.198783,59.3583594 L233.758744,62.3518468 C234.139594,64.3878316 234.478522,65.753569 234.775537,66.4491002 C235.232371,67.5528717 235.955166,68.2939254 236.943941,68.6722834 L237.153219,69.7910615 L226.902793,71.7085031 C226.435808,70.7735393 226.085284,70.0150072 225.85121,69.4328841 C225.375521,68.2283212 225.005053,66.9728004 224.739792,65.666284 L223.904423,61.5350935 C223.332423,58.7003197 222.458906,56.9025678 221.283844,56.1417839 C220.108783,55.381 218.150519,55.2570242 215.408995,55.7698529 L205.793551,57.5685149 L209.062817,75.0456435 L199.961406,76.7481506 L191.624211,32.1784492 L213.485741,28.0890382 C216.621584,27.5650392 219.097065,27.4983795 220.912258,27.8890571 L220.912258,27.8890571 Z M256.969925,46.10199 L268.129176,43.3031616 L258.298634,27.3743346 L256.969925,46.10199 Z M250.674471,18.5987517 L261.057945,15.9944942 L287.663833,56.0686866 L277.698085,58.568175 L272.596015,50.2383236 L256.394215,54.3018631 L255.618283,64.1059637 L246.010585,66.5156502 L250.674471,18.5987517 Z M299.729089,35.916339 C300.651887,37.7928142 301.673372,39.0858439 302.793576,39.795467 C304.839747,41.0845347 307.634679,41.1432449 311.178456,39.9715992 C313.300829,39.2698994 314.946763,38.466527 316.116309,37.5614579 C318.331977,35.8353258 319.03745,33.7553344 318.232748,31.3214212 C317.762802,29.900016 316.77601,29.0059043 315.272342,28.6390594 C313.775112,28.2916858 311.596181,28.2669063 308.735483,28.5647202 L303.841248,29.0488758 C299.028092,29.517019 295.568481,29.440472 293.462312,28.8192324 C289.904451,27.7923637 287.427076,25.1663322 286.030114,20.941059 C284.755467,17.0857407 285.098408,13.4192578 287.058949,9.94150056 C289.019489,6.46374329 292.715951,3.82685713 298.148445,2.03076298 C302.685259,0.53079904 306.95264,0.453677597 310.950715,1.79939633 C314.94879,3.14511507 317.782089,6.08005827 319.450699,10.604314 L310.805483,13.4626001 C309.79351,10.9244175 308.055846,9.45778272 305.592438,9.0626519 C303.952313,8.80572179 302.090563,9.02166582 300.007133,9.71049046 C297.690048,10.4765665 295.994802,11.5554349 294.921345,12.9471281 C293.847888,14.3388212 293.587981,15.871911 294.141615,17.5464432 C294.650187,19.0846763 295.711486,20.0081529 297.325544,20.3169009 C298.369131,20.5334622 300.434692,20.5093265 303.52229,20.2444929 L311.529859,19.57339 C315.039072,19.2771607 317.836826,19.5077328 319.923207,20.265113 C323.162931,21.4403638 325.416865,23.9458751 326.685074,27.7817221 C327.985472,31.7149257 327.56123,35.4784863 325.412335,39.0725168 C323.26344,42.6665472 319.443595,45.3712254 313.952687,47.1866324 C308.344952,49.0406651 303.511501,49.2185436 299.452189,47.7202732 C295.392878,46.2220028 292.622938,43.2337124 291.142287,38.7553123 L299.729089,35.916339 Z" id="path-20"></path>
        <filter x="-50%" y="-50%" width="200%" height="200%" filterUnits="objectBoundingBox" id="filter-21">
            <feOffset dx="2" dy="2" in="SourceAlpha" result="shadowOffsetOuter1"></feOffset>
            <feGaussianBlur stdDeviation="2" in="shadowOffsetOuter1" result="shadowBlurOuter1"></feGaussianBlur>
            <feColorMatrix values="0 0 0 0 0   0 0 0 0 0   0 0 0 0 0  0 0 0 0.5 0" type="matrix" in="shadowBlurOuter1"></feColorMatrix>
        </filter>
    </defs>
    <g id="Page-1" stroke="none" stroke-width="1" fill="none" fill-rule="evenodd">
        <g id="Unibras-Brand" filter="url(#filter-1)" transform="translate(4.000000, 3.000000)">
            <g id="Unibras" filter="url(#filter-2)" transform="translate(461.000000, 95.000000)">
                <g id="s">
                    <use fill="#016700" fill-rule="evenodd" xlink:href="#path-3"></use>
                    <use fill="black" fill-opacity="1" filter="url(#filter-4)" xlink:href="#path-3"></use>
                </g>
                <g id="a">
                    <use fill="#016700" fill-rule="evenodd" xlink:href="#path-5"></use>
                    <use fill="black" fill-opacity="1" filter="url(#filter-6)" xlink:href="#path-5"></use>
                </g>
                <g id="r">
                    <use fill="#016700" fill-rule="evenodd" xlink:href="#path-7"></use>
                    <use fill="black" fill-opacity="1" filter="url(#filter-8)" xlink:href="#path-7"></use>
                </g>
                <g id="b">
                    <use fill="#016700" fill-rule="evenodd" xlink:href="#path-9"></use>
                    <use fill="black" fill-opacity="1" filter="url(#filter-10)" xlink:href="#path-9"></use>
                </g>
                <g id="i">
                    <use fill="#016700" fill-rule="evenodd" xlink:href="#path-11"></use>
                    <use fill="black" fill-opacity="1" filter="url(#filter-12)" xlink:href="#path-11"></use>
                </g>
                <g id="n">
                    <use fill="#016700" fill-rule="evenodd" xlink:href="#path-13"></use>
                    <use fill="black" fill-opacity="1" filter="url(#filter-14)" xlink:href="#path-13"></use>
                </g>
                <g id="u">
                    <use fill="#016700" fill-rule="evenodd" xlink:href="#path-15"></use>
                    <use fill="black" fill-opacity="1" filter="url(#filter-16)" xlink:href="#path-15"></use>
                </g>
            </g>
            <g id="Logo">
                <path d="M34.5810351,262.96354 C27.3179488,265.792961 20.2547636,268.690411 13.4037528,271.649413 C6.7977212,245.545048 2.23247556,217.935309 -1.80821189e-08,189.257857 L-1.33475169e-08,189.257857 C6.95049997,186.234525 14.1221206,183.274627 21.5018813,180.385014 L34.5810351,262.96354 Z M418.530233,203.513735 C423.519893,203.829802 428.484465,204.194359 433.428264,204.606638 C428.774849,175.068107 428.41236,146.936962 419.080402,120.852498 C414.541121,120.533495 409.948576,120.254074 405.305267,120.014758 L418.530206,203.513733 Z" id="ribbon-back" stroke="#016700" stroke-width="4.05999994" fill="#D8D8D8"></path>
                <g id="earth" transform="translate(9.000000, 0.000000)">
                    <g id="Capa_1">
                        <ellipse id="background" fill="#FFFFFF" cx="209" cy="197.5" rx="203" ry="194.5"></ellipse>
                        <g id="Group" filter="url(#filter-17)" fill="#016700">
                            <polygon id="Shape" points="303.658914 87.8067194 304.061713 90.7376696 299.425241 91.6469948 298.808187 97.8904869 304.36167 97.8904869 311.749172 97.216612 315.562906 92.921674 311.509207 91.4277825 309.289528 89.0083278 305.955725 83.8933733 304.36167 76.6593661 298.096862 77.8690935 296.339973 80.4184518 296.339973 83.2925691 299.35668 85.2492422"></polygon>
                            <polygon id="Shape" points="298.319687 90.2099362 298.653924 86.29659 294.977313 84.7945795 289.8352 85.9231171 286.021466 91.7200656 286.021466 95.4791512 290.469394 95.4791512"></polygon>
                            <path d="M192.47786,106.829479 L191.346596,109.589931 L185.870245,109.589931 L185.870245,112.269192 L187.172914,112.269192 C187.172914,112.269192 187.250046,112.837521 187.361458,113.584466 L190.720972,113.31654 L192.820668,112.082456 L193.36916,109.589931 L196.08591,109.370718 L197.157183,107.276023 L194.663258,106.788884 L192.47786,106.829479 L192.47786,106.829479 Z" id="Shape"></path>
                            <polygon id="Shape" points="178.36276 111.692745 178.148506 114.315174 182.116503 113.998534 182.527872 111.367986 180.145359 109.589931"></polygon>
                            <path d="M416.673988,195.350668 C416.613997,189.578077 416.30547,183.84608 415.731267,178.203392 C413.802975,159.391726 409.055091,141.359481 401.941834,124.455775 C401.410483,123.197333 400.921982,121.922654 400.356349,120.680451 C390.877721,99.4655682 377.568219,80.1505256 361.27629,63.482269 C360.205017,62.3943263 359.116603,61.3226215 358.028189,60.2671547 C354.951491,57.2387769 351.789092,54.2834698 348.51528,51.4499474 C311.474926,19.501779 262.282045,0 208.35842,0 C153.980574,0 104.436315,19.850895 67.293119,52.2862019 C58.6372288,59.844968 50.684094,68.093847 43.4679954,76.9272923 C16.2490771,110.280043 0,152.060291 0,197.388531 C0,306.239635 93.4750445,394.785181 208.36699,394.785181 C289.183866,394.785181 359.347998,350.942714 393.885857,287.062615 C401.27336,273.406498 407.023956,258.849175 410.897681,243.59362 C411.883253,239.720869 412.731701,235.83188 413.468738,231.894177 C415.568434,220.681872 416.716839,209.152926 416.716839,197.388531 C416.725409,196.706537 416.682558,196.032662 416.673988,195.350668 L416.673988,195.350668 Z M377.456806,116.458584 L378.665203,115.175786 C380.250688,118.090498 381.73333,121.053924 383.147411,124.057945 L381.176268,123.984874 L377.456806,124.472013 L377.456806,116.458584 L377.456806,116.458584 Z M347.349734,82.0178899 L347.384015,73.2006826 C350.657827,76.4888677 353.811656,79.8744804 356.828363,83.3818778 L353.07462,88.6754498 L339.953662,88.5617841 L339.130924,85.971831 L347.349734,82.0178899 L347.349734,82.0178899 Z M96.0032501,60.1047752 L96.0032501,59.7718972 L100.176932,59.7718972 L100.53688,58.4160283 L107.36732,58.4160283 L107.36732,61.2414318 L105.404747,63.7258383 L95.9946799,63.7258383 L96.0032501,60.1047752 L96.0032501,60.1047752 L96.0032501,60.1047752 Z M102.670857,68.9138636 C102.670857,68.9138636 106.844538,68.2399886 107.204486,68.2399886 C107.564434,68.2399886 107.204486,72.1858107 107.204486,72.1858107 L97.7944194,72.74602 L96.0032501,70.7162761 L102.670857,68.9138636 L102.670857,68.9138636 Z M390.732028,147.270096 L375.485663,147.270096 L366.195579,140.718082 L356.416994,141.619289 L356.416994,147.270096 L353.323156,147.270096 L349.980782,145.01302 L333.04609,140.945414 L333.04609,130.553125 L311.586338,132.136325 L304.935872,135.521938 L296.417105,135.521938 L292.243423,135.124108 L281.899206,140.563822 L281.899206,150.80185 L260.756551,165.253626 L262.51344,171.424048 L266.798534,171.424048 L265.675839,177.302186 L262.659133,178.349534 L262.496299,193.710635 L280.767941,213.423507 L288.721076,213.423507 L289.201006,212.221899 L303.496081,212.221899 L307.618341,208.608955 L315.725739,208.608955 L320.173667,212.830822 L332.257633,214.016193 L330.655007,229.239272 L344.067352,251.672001 L337.005517,264.459387 L337.485448,270.483667 L343.0475,275.736644 L343.0475,290.220896 L350.3493,299.525242 L350.3493,311.557564 L356.656959,311.557564 C321.553467,352.387891 268.126913,378.539111 208.349849,378.539111 C102.919392,378.54723 17.1403767,297.276286 17.1403767,197.388531 C17.1403767,172.244064 22.5910165,148.276849 32.4038822,126.493637 L32.4038822,120.842831 L39.2428925,112.975543 C41.6168347,108.729319 44.1621806,104.588642 46.8789304,100.553511 L47.1874571,103.841696 L39.2514627,112.975543 C36.7918186,117.376028 34.4950082,121.87394 32.4124524,126.493637 L32.4124524,136.804736 L40.357017,140.425799 L40.357017,154.755791 L47.9759145,167.072277 L54.1721606,167.973483 L54.9691882,163.751616 L47.6588175,153.067044 L46.227596,142.682874 L50.5126902,142.682874 L52.321,153.367446 L62.8880422,167.973483 L60.1627223,172.690608 L66.88175,182.425259 L83.5679067,186.338605 L83.5679067,183.781128 L90.2440835,184.682334 L89.6098895,189.196485 L94.8548448,190.10581 L102.953673,192.200506 L114.394874,204.549467 L129.007045,205.596815 L130.438267,216.89031 L120.436857,223.515394 L119.965497,233.599161 L118.534275,239.769583 L133.000753,256.924978 L134.106308,262.803116 C134.106308,262.803116 139.351263,264.150866 139.994027,264.150866 C140.628221,264.150866 151.752325,272.131819 151.752325,272.131819 L151.752325,303.138186 L155.720323,304.193653 L153.020713,318.499288 L159.69689,326.934903 L158.462783,341.110634 L167.281507,355.797861 L178.602726,365.167159 L189.983936,365.362014 L191.09806,361.895211 L182.733556,355.221414 L183.213487,351.908872 L184.71327,347.849384 L185.030367,343.708706 L179.374042,343.546327 L176.52017,340.152595 L181.216633,335.873895 L181.850827,332.642543 L176.605872,331.221722 L176.914398,328.217701 L184.387603,327.145997 L195.751672,321.974209 L199.565406,315.349125 L211.486538,300.897349 L208.778359,289.595735 L212.437829,283.579574 L223.3991,283.896214 L230.778032,278.359073 L233.160545,256.551505 L241.345075,246.703188 L242.776296,240.378506 L235.311662,238.113312 L230.383804,230.457118 L213.543383,230.294738 L200.19103,225.472067 L199.556836,216.451885 L195.100338,209.071737 L183.024943,208.901238 L176.048809,198.525188 L169.852563,195.659189 L169.535466,198.82559 L158.257098,199.45887 L154.126268,194.011037 L142.359399,191.745843 L132.666516,202.357344 L117.411581,199.905413 L116.306026,183.618749 L105.173352,181.816336 L109.63842,173.827264 L108.361462,169.240043 L93.7321501,178.503794 L84.5277678,177.440208 L81.2453857,170.628388 L83.2508098,163.605474 L88.3243613,154.747672 L100.005528,149.145579 L122.562264,149.13746 L122.502272,155.656997 L130.609671,159.229346 L129.966907,148.090112 L135.811775,142.520495 L147.604354,135.180941 L148.409952,130.017273 L160.16825,118.423376 L172.672155,111.863244 L171.566601,111.002632 L180.033947,103.451985 L183.136355,104.231407 L184.559006,105.920154 L187.772827,102.54266 L188.561284,102.209782 L185.038937,101.738881 L181.465168,100.610344 L181.465168,97.3627535 L183.35918,95.893219 L187.532862,95.893219 L189.444014,96.6888786 L191.09806,99.855279 L193.120625,99.5629959 L193.120625,99.2869507 L193.703397,99.4736871 L199.565406,98.6211947 L200.396715,95.9094569 L203.739088,96.7051165 L203.739088,99.6441856 L200.63668,101.665811 L200.64525,101.665811 L201.09947,104.889044 L211.717933,107.990492 C211.717933,107.990492 211.726504,108.031087 211.743644,108.112277 L214.186148,107.917422 L214.348981,103.557532 L205.933056,99.9283498 L205.453126,97.8336541 L212.437829,95.5765789 L212.746356,89.2437781 L205.444555,85.0300298 L204.964625,74.3535771 L194.954645,79.013869 L191.303745,79.013869 L192.263606,70.8867746 L178.637006,67.8421588 L172.997822,71.8772896 L172.997822,84.1856564 L162.859289,87.2302722 L158.79702,95.2518199 L154.391943,95.9256949 L154.391943,85.6633099 L144.861894,84.4129877 L140.096869,81.4739186 L138.177147,74.8244777 L155.223252,65.3739903 L163.562045,62.9707735 L164.401923,68.2805835 L169.046965,68.0532522 L169.406913,65.3821092 L174.26621,64.7244722 L174.351912,63.7907901 L172.260786,62.9707735 L171.780856,60.1453701 L177.754277,59.6663505 L181.362326,56.1102393 L181.55944,55.8504321 L181.602291,55.86667 L182.699276,54.7949653 L195.254601,53.2929548 L200.808084,57.7583913 L186.247334,65.1060641 L204.776081,69.2467416 L207.175734,63.3767223 L215.274562,63.3767223 L218.137004,58.2617678 L212.412119,56.9058989 L212.412119,50.4350755 L194.457574,42.9006662 L182.065082,44.2565351 L175.071808,47.7233377 L175.551738,56.1508342 L168.241368,55.0953674 L167.118673,50.4350755 L174.120517,44.4107957 L161.410928,43.8099915 L157.760027,44.8573393 L156.174543,48.916827 L160.939567,49.6800107 L159.988276,54.1941611 L151.889448,54.6488237 L150.62106,57.6528446 L138.871332,57.9613657 C138.871332,57.9613657 138.545665,51.6448028 138.074305,51.6448028 C137.602944,51.6448028 147.287257,51.4905423 147.287257,51.4905423 L154.289101,45.0115999 L150.466797,43.2010683 L145.384675,47.8775982 L136.95161,47.4229356 L131.869488,40.7978516 L121.062481,40.7978516 L109.784113,48.7788045 L120.11976,48.7788045 L121.062481,51.6448028 L118.380012,54.0074247 L129.821213,54.3078267 L131.569532,58.2211729 L118.688539,57.7665103 L118.062915,54.7543704 L109.964087,53.0980994 L105.670423,50.8410242 L96.0289606,50.914095 C127.592964,29.1308839 166.407347,16.2379509 208.35842,16.2379509 C256.711422,16.2379509 300.890743,33.3608701 334.597294,61.49312 L332.326194,65.3415144 L323.50747,68.6134615 L319.788009,72.4374989 L320.645027,76.8948164 L325.195797,77.4956206 L327.938258,83.990801 L335.78855,80.994899 L337.082649,89.6822028 L334.717277,89.6822028 L328.272495,88.7809965 L321.124958,89.917653 L314.208816,99.173285 L304.318819,100.64282 L302.887597,108.664367 L307.061279,109.59805 L305.852882,114.753599 L296.031446,112.886235 L287.024178,114.753599 L285.113026,119.5032 L286.672801,129.473301 L291.960607,131.819685 L300.830752,131.770971 L306.821314,131.259476 L308.646764,126.745326 L318.005409,115.224499 L324.167375,116.417989 L330.235068,111.221845 L331.366333,115.281332 L346.295601,124.821128 L344.470151,127.143155 L337.742553,126.802158 L340.33075,130.27708 L344.470151,131.137691 L349.320878,129.221613 L349.218035,123.684472 L351.369153,122.661481 L349.637975,120.92402 L339.679416,115.662924 L337.056938,108.672486 L345.33574,108.672486 L347.983928,111.156893 L355.114325,116.978198 L355.414282,124.01735 L362.801784,131.470569 L365.552814,121.256898 L370.669217,118.610112 L371.629078,126.964538 L376.625498,132.160682 L386.592627,131.998303 C388.520919,136.69919 390.252097,141.481266 391.769021,146.36077 L390.732028,147.270096 L390.732028,147.270096 Z M113.649268,89.6822028 L118.654258,87.4251276 L123.179317,88.4481185 L121.619543,94.2044721 L116.734536,95.6740066 L113.649268,89.6822028 L113.649268,89.6822028 Z M140.208282,103.232773 L140.208282,106.959382 L128.77565,106.959382 L124.490556,105.830845 L125.56183,103.232773 L131.05532,101.081244 L138.562805,101.081244 L138.562805,103.232773 L140.208282,103.232773 L140.208282,103.232773 Z M145.470377,108.428917 L145.470377,112.041861 L142.607934,113.787441 L139.042736,114.412602 L139.042736,108.428917 L145.470377,108.428917 L145.470377,108.428917 Z M142.247986,106.959382 L142.247986,102.664444 L146.181703,106.058176 L142.247986,106.959382 L142.247986,106.959382 Z M144.039156,115.646686 L144.039156,119.162203 L141.305266,121.760275 L135.229002,121.760275 L136.180293,117.814453 L139.051306,117.579002 L139.642649,116.223133 L144.039156,115.646686 L144.039156,115.646686 Z M128.904203,108.428917 L135.220432,108.428917 L127.121604,119.154084 L123.779231,117.457218 L124.499126,112.943067 L128.904203,108.428917 L128.904203,108.428917 Z M154.769032,114.412602 L154.769032,117.919999 L148.692768,117.919999 L147.030152,115.646686 L147.030152,112.382858 L147.510082,112.382858 L154.769032,114.412602 L154.769032,114.412602 Z M149.155558,109.589931 L150.886736,107.868708 L153.809171,109.589931 L151.469509,111.4167 L149.155558,109.589931 L149.155558,109.589931 Z M393.834436,156.412062 L394.434349,155.746306 C394.682885,156.769297 394.948561,157.792288 395.188526,158.831517 L393.834436,156.412062 L393.834436,156.412062 Z" id="Shape"></path>
                            <path d="M32.4124524,120.842831 L32.4124524,126.493637 C34.4950082,121.882059 36.7918186,117.384147 39.2514627,112.975543 L32.4124524,120.842831 L32.4124524,120.842831 Z" id="Shape"></path>
                        </g>
                    </g>
                </g>
                <g id="ribbon-front">
                    <use fill="black" fill-opacity="1" filter="url(#filter-19)" xlink:href="#path-18"></use>
                    <use stroke="#016700" stroke-width="4.05999994" fill="#FFFFFF" fill-rule="evenodd" xlink:href="#path-18"></use>
                </g>
                <g id="Unibras" transform="translate(61.000000, 164.000000)">
                    <path d="M0,95 C0,95 199,100 349,31" id="Path-2" stroke="#979797" opacity="0"></path>
                    <g id="UNIBRAS">
                        <use fill="black" fill-opacity="1" filter="url(#filter-21)" xlink:href="#path-20"></use>
                        <use fill="#016700" fill-rule="evenodd" xlink:href="#path-20"></use>
                    </g>
                </g>
            </g>
        </g>
    </g>
</svg>